# xmcd CD database file
#
# Track frame offsets:
#	150
#	17989
#	35796
#	55342
#	72897
#	89674
#	107220
#	123421
#	138553
#	156410
#
# Disc length: 2328 seconds
#
# Revision: 0
# Processed by: cddbd v1.5.2PL0 Copyright (c) Steve Scherf et al.
# Submitted via: CDex 1.70beta2
#
DISCID=9709160a
DTITLE=Craig Morgan - That's Why
DYEAR=2008
DGENRE=Country
TTITLE0=Love Remembers
TTITLE1=Lookin' Back With You
TTITLE2=That's Why
TTITLE3=Sticks
TTITLE4=God Must Really Love Me
TTITLE5=Summer Sundown
TTITLE6=Every Red Light
TTITLE7=It Took A Woman
TTITLE8=Planet Her
TTITLE9=Ordinary Angels
EXTD=YEAR: 2008
EXTT0=
EXTT1=
EXTT2=
EXTT3=
EXTT4=
EXTT5=
EXTT6=
EXTT7=
EXTT8=
EXTT9=
PLAYORDER=
